<?xml version="1.0" standalone="no"?>
<!DOCTYPE svg PUBLIC "-//W3C//DTD SVG 20010904//EN"
 "http://www.w3.org/TR/2001/REC-SVG-20010904/DTD/svg10.dtd">
<svg version="1.0" xmlns="http://www.w3.org/2000/svg"
 width="225.000000pt" height="225.000000pt" viewBox="0 0 225.000000 225.000000"
 preserveAspectRatio="xMidYMid meet">
<metadata>
Created by potrace 1.16, written by Peter Selinger 2001-2019
</metadata>
<g transform="translate(0.000000,225.000000) scale(0.100000,-0.100000)"
fill="#000000" stroke="none">
<path d="M1013 2105 c-101 -31 -194 -113 -239 -208 -13 -29 -24 -47 -24 -40 0
24 39 102 70 137 18 20 29 36 25 36 -4 0 -34 -14 -66 -31 -100 -53 -159 -135
-159 -219 0 -44 20 -101 33 -94 24 14 -88 -82 -116 -99 -16 -10 -74 -38 -129
-62 -144 -63 -161 -84 -116 -139 54 -66 78 -86 100 -86 13 0 29 -9 36 -20 20
-32 42 -25 42 13 0 42 8 52 51 67 44 16 62 10 85 -26 37 -55 17 -117 -50 -151
-27 -14 -30 -13 -56 12 -18 17 -35 25 -44 22 -18 -7 -21 -38 -5 -54 8 -8 7
-16 -2 -31 -11 -18 -9 -29 16 -81 16 -34 32 -61 37 -61 4 0 31 11 60 23 43 19
55 30 66 60 17 48 50 67 69 41 8 -11 12 -29 10 -42 -4 -22 -2 -21 32 11 20 19
60 50 89 69 69 46 138 112 158 151 9 17 20 54 24 82 l8 50 1 -48 c2 -87 -33
-142 -144 -224 -97 -70 -160 -138 -193 -205 -68 -140 -94 -266 -72 -348 l12
-45 17 55 c48 151 107 214 380 405 127 88 89 50 -62 -63 -196 -146 -257 -217
-298 -344 -19 -59 -21 -83 -16 -166 7 -136 33 -200 110 -275 32 -32 61 -56 63
-54 3 2 -9 44 -25 93 -64 192 -67 336 -9 452 20 38 47 76 68 91 l35 26 -17
-26 c-54 -84 -69 -281 -30 -394 l20 -60 1 55 c3 122 37 201 158 360 48 63 108
157 134 208 l46 92 46 -67 c25 -38 80 -117 122 -178 42 -60 97 -140 122 -178
l46 -67 163 0 c90 0 164 2 164 5 0 3 -44 65 -98 138 -54 72 -138 186 -187 252
-48 66 -92 125 -97 132 -6 8 7 16 44 28 81 27 126 53 180 103 151 141 191 391
91 573 -57 106 -182 197 -302 219 -29 5 -96 10 -147 10 -52 0 -94 3 -94 8 0 4
9 21 20 37 11 17 20 34 20 39 0 15 -122 -1 -181 -23 -67 -26 -131 -76 -181
-143 -21 -27 -38 -47 -38 -43 0 15 91 135 110 145 20 11 77 111 63 109 -5 0
-27 -6 -50 -14z m444 -393 c142 -74 161 -281 33 -366 -52 -34 -102 -46 -197
-46 l-81 0 -52 103 c-52 101 -52 103 -48 179 4 63 10 85 32 118 l28 42 121 -4
c101 -3 129 -7 164 -26z"/>
</g>
</svg>
